Coordinates
version=1
nRows=16
nColumns=38
inDegrees=no

Units are S.I. units (second, meters, Newtons, ...)
If the header above contains a line with 'inDegrees', this indicates whether rotational values are in degrees (yes) or radians (no).

endheader
time	pelvis_tilt	pelvis_list	pelvis_rotation	pelvis_tx	pelvis_ty	pelvis_tz	hip_flexion_r	hip_adduction_r	hip_rotation_r	knee_angle_r	ankle_angle_r	subtalar_angle_r	mtp_angle_r	hip_flexion_l	hip_adduction_l	hip_rotation_l	knee_angle_l	ankle_angle_l	subtalar_angle_l	mtp_angle_l	lumbar_extension	lumbar_bending	lumbar_rotation	arm_flex_r	arm_add_r	arm_rot_r	elbow_flex_r	pro_sup_r	wrist_flex_r	wrist_dev_r	arm_flex_l	arm_add_l	arm_rot_l	elbow_flex_l	pro_sup_l	wrist_flex_l	wrist_dev_l
1.91	-0.211721	1.27418	-1.26336	1.03006	-0.534069	0.958974	-0.246205	0.103029	-0.196351	0.250965	-0.241659	0	0	-0.0224001	-0.183886	-0.0472307	1.32825	-0.164141	0	0	-0.395015	0.136174	-0.072816	-0.310519	-0.200883	-0.316622	0.841766	0.438032	0	0	-0.0388715	-0.316441	0.270418	0.807191	1.4413	0	0
1.92	-0.190588	1.27376	-1.29084	1.02882	-0.543414	0.959854	-0.264498	0.0985254	-0.192528	0.239633	-0.241779	0	0	-0.00242125	-0.176176	-0.0522146	1.3215	-0.154505	0	0	-0.399368	0.127268	-0.0698915	-0.308652	-0.20007	-0.313789	0.840563	0.443659	0	0	-0.0481465	-0.318761	0.2685	0.804809	1.43835	0	0
1.93	-0.168029	1.27475	-1.32018	1.02769	-0.552572	0.960503	-0.279646	0.0922727	-0.19203	0.231309	-0.241295	0	0	0.0179136	-0.166051	-0.0564836	1.30961	-0.145463	0	0	-0.402488	0.117716	-0.0671096	-0.304728	-0.199387	-0.311112	0.837301	0.447488	0	0	-0.0564128	-0.32084	0.267079	0.801613	1.43361	0	0
1.94	-0.146404	1.27528	-1.34841	1.02662	-0.561821	0.960986	-0.294883	0.0862246	-0.191208	0.223856	-0.239639	0	0	0.0363693	-0.156581	-0.0620549	1.29235	-0.137259	0	0	-0.405337	0.108539	-0.0641388	-0.300701	-0.19941	-0.307277	0.833334	0.451609	0	0	-0.0640866	-0.322995	0.267391	0.797538	1.42972	0	0
1.95	-0.127455	1.27418	-1.37319	1.02558	-0.571225	0.961434	-0.315467	0.0825434	-0.182485	0.207937	-0.239191	0	0	0.0513458	-0.149035	-0.0689682	1.26964	-0.129862	0	0	-0.409093	0.100463	-0.0613013	-0.298137	-0.199755	-0.303495	0.831095	0.456372	0	0	-0.071535	-0.324936	0.268046	0.793206	1.42599	0	0
1.96	-0.11013	1.27158	-1.39618	1.02466	-0.58061	0.96178	-0.331067	0.0774674	-0.182649	0.206953	-0.236169	0	0	0.0629907	-0.142363	-0.0773684	1.24161	-0.123246	0	0	-0.414879	0.0933157	-0.0581861	-0.297579	-0.199745	-0.302536	0.833338	0.460073	0	0	-0.0789108	-0.326306	0.266677	0.791663	1.41642	0	0
1.97	-0.0947695	1.26812	-1.41758	1.02377	-0.589851	0.961989	-0.349079	0.0732769	-0.177336	0.201864	-0.231722	0	0	0.0721239	-0.136759	-0.0881319	1.20841	-0.117628	0	0	-0.421825	0.0864585	-0.0548738	-0.296458	-0.199058	-0.303634	0.8364	0.461326	0	0	-0.0859218	-0.328196	0.265909	0.790865	1.40444	0	0
1.98	-0.0803935	1.26346	-1.43767	1.02295	-0.599042	0.962086	-0.368111	0.0693306	-0.172116	0.19646	-0.227311	0	0	0.0781957	-0.131664	-0.100607	1.17011	-0.113092	0	0	-0.429638	0.0798017	-0.0520567	-0.294146	-0.197679	-0.305561	0.838712	0.459853	0	0	-0.0926118	-0.330787	0.26692	0.789335	1.39436	0	0
1.99	-0.0674386	1.25779	-1.45546	1.02222	-0.60834	0.962082	-0.388568	0.0660674	-0.168142	0.18964	-0.223193	0	0	0.0811222	-0.126814	-0.113445	1.12658	-0.110473	0	0	-0.438138	0.0741695	-0.0493114	-0.292294	-0.196405	-0.307228	0.841936	0.457102	0	0	-0.098062	-0.333071	0.269152	0.786808	1.38392	0	0
2	-0.0572768	1.25271	-1.4703	1.02155	-0.617742	0.961881	-0.40679	0.0628934	-0.162674	0.189645	-0.222469	0	0	0.0824316	-0.122139	-0.125927	1.07789	-0.109625	0	0	-0.445569	0.0690963	-0.0460043	-0.290941	-0.195844	-0.307634	0.845418	0.454036	0	0	-0.102937	-0.334957	0.271431	0.78294	1.37557	0	0
2.01	-0.0494618	1.24712	-1.48196	1.02093	-0.627215	0.961546	-0.425659	0.061005	-0.160308	0.185909	-0.219018	0	0	0.0809112	-0.1183	-0.138535	1.02381	-0.111571	0	0	-0.453404	0.0644887	-0.0426929	-0.290742	-0.195816	-0.30679	0.850328	0.451037	0	0	-0.107616	-0.337427	0.27466	0.778181	1.37049	0	0
2.02	-0.0442935	1.2419	-1.49017	1.02042	-0.636738	0.960994	-0.444615	0.0603579	-0.158998	0.178128	-0.212758	0	0	0.0778829	-0.115473	-0.151646	0.964335	-0.11737	0	0	-0.460713	0.0610553	-0.0397981	-0.291193	-0.196218	-0.305477	0.856315	0.447934	0	0	-0.112155	-0.339719	0.277423	0.773533	1.36657	0	0
2.03	-0.0418264	1.23852	-1.49555	1.02	-0.646305	0.960138	-0.4607	0.0599336	-0.155134	0.175155	-0.20944	0	0	0.0753551	-0.113109	-0.166238	0.900915	-0.12696	0	0	-0.466053	0.0587306	-0.0369963	-0.29161	-0.197074	-0.303846	0.862273	0.444827	0	0	-0.116335	-0.34079	0.278454	0.76828	1.36115	0	0
2.04	-0.0407522	1.23634	-1.49892	1.01969	-0.655991	0.959039	-0.475296	0.0599009	-0.152459	0.173834	-0.205042	0	0	0.0729952	-0.110789	-0.182896	0.834892	-0.139155	0	0	-0.469843	0.0570983	-0.0346326	-0.292017	-0.19779	-0.302605	0.867755	0.441064	0	0	-0.120384	-0.340911	0.277802	0.7622	1.35483	0	0
2.05	-0.0410691	1.23478	-1.50034	1.01952	-0.665748	0.957776	-0.488093	0.0599727	-0.150569	0.175576	-0.198615	0	0	0.0695093	-0.108192	-0.200904	0.766511	-0.151929	0	0	-0.472822	0.0561057	-0.0326685	-0.292703	-0.198694	-0.301209	0.873188	0.43757	0	0	-0.124391	-0.340216	0.275759	0.755595	1.34786	0	0
2.06	-0.042295	1.23457	-1.49995	1.01948	-0.675546	0.956322	-0.499273	0.0603798	-0.149553	0.177485	-0.191447	0	0	0.0660891	-0.105078	-0.21869	0.697326	-0.16273	0	0	-0.474258	0.0555366	-0.0315143	-0.293074	-0.199753	-0.299314	0.877565	0.434723	0	0	-0.128284	-0.338507	0.272189	0.747788	1.34002	0	0
